<?xml version="1.0" standalone="no"?><!DOCTYPE svg PUBLIC "-//W3C//DTD SVG 1.1//EN" "http://www.w3.org/Graphics/SVG/1.1/DTD/svg11.dtd"><svg t="1747216487122" class="icon" viewBox="0 0 1024 1024" version="1.1" xmlns="http://www.w3.org/2000/svg" p-id="8154" xmlns:xlink="http://www.w3.org/1999/xlink" width="200" height="200"><path d="M512 75.904l400 208.704v454.784L512 948.096 112 739.392V284.608L512 75.904z m-22.608 813.488a31.936 31.936 0 0 0 0 45.216 31.936 31.936 0 0 0 45.216 0 31.936 31.936 0 0 0 0-45.216 31.936 31.936 0 0 0-45.216 0zM480 575.744l-260.768 147.392L480 859.2V575.744z m64 0v283.424l260.752-136.048L544 575.76z m313.392 121.648a31.936 31.936 0 0 0 0 45.216 31.936 31.936 0 0 0 45.216 0 31.936 31.936 0 0 0 0-45.216 31.936 31.936 0 0 0-45.216 0z m-736 0a31.936 31.936 0 0 0 0 45.216 31.936 31.936 0 0 0 45.216 0 31.936 31.936 0 0 0 0-45.216 31.936 31.936 0 0 0-45.216 0zM176 358.832v315.2l278.832-157.584L176 358.848z m672 0l-278.832 157.6L848 674.032v-315.2z m-358.608 130.56a31.936 31.936 0 0 0 0 45.216 31.936 31.936 0 0 0 45.216 0 31.936 31.936 0 0 0 0-45.216 31.936 31.936 0 0 0-45.216 0zM480 164.768L211.024 305.12 480 457.136V164.768z m64 0V457.12l268.96-152L544 164.752z m313.392 116.624a31.936 31.936 0 0 0 0 45.216 31.936 31.936 0 0 0 45.216 0 31.936 31.936 0 0 0 0-45.216 31.936 31.936 0 0 0-45.216 0z m-736 0a31.936 31.936 0 0 0 0 45.216 31.936 31.936 0 0 0 45.216 0 31.936 31.936 0 0 0 0-45.216 31.936 31.936 0 0 0-45.216 0z m368-192a31.936 31.936 0 0 0 0 45.216 31.936 31.936 0 0 0 45.216 0 31.936 31.936 0 0 0 0-45.216 31.936 31.936 0 0 0-45.216 0z" fill="#17191C" p-id="8155"></path><path d="M568.528 855.472a79.824 79.824 0 0 1 0 113.056 79.824 79.824 0 0 1-113.056 0c-31.296-31.28-31.296-82.192 0-113.056a79.824 79.824 0 0 1 113.056 0z m-77.072 32.064l-2.272 2.096c-12.288 12.112-12.288 32.448 0.224 44.96 12.544 12.544 32.64 12.544 45.184 0a31.824 31.824 0 0 0 0-45.184 31.808 31.808 0 0 0-43.136-1.872z m445.072-224.064a79.824 79.824 0 0 1 0 113.056 79.824 79.824 0 0 1-113.056 0c-31.296-31.28-31.296-82.192 0-113.056a79.824 79.824 0 0 1 113.056 0z m-736 0a79.824 79.824 0 0 1 0 113.056 79.824 79.824 0 0 1-113.056 0c-31.296-31.28-31.296-82.192 0-113.056a79.824 79.824 0 0 1 113.056 0z m658.928 32.064l-2.272 2.096c-12.288 12.112-12.288 32.448 0.224 44.96 12.544 12.544 32.64 12.544 45.184 0a31.824 31.824 0 0 0 0-45.184 31.808 31.808 0 0 0-43.136-1.872z m-736 0l-2.272 2.096c-12.288 12.112-12.288 32.448 0.224 44.96 12.544 12.544 32.64 12.544 45.184 0a31.824 31.824 0 0 0 0-45.184 31.808 31.808 0 0 0-43.136-1.872z m445.072-240.064a79.824 79.824 0 0 1 0 113.056 79.824 79.824 0 0 1-113.056 0c-31.296-31.28-31.296-82.192 0-113.056a79.824 79.824 0 0 1 113.056 0z m-77.072 32.064l-2.272 2.096c-12.288 12.112-12.288 32.448 0.224 44.96 12.544 12.544 32.64 12.544 45.184 0a31.824 31.824 0 0 0 0-45.184 31.808 31.808 0 0 0-43.136-1.872z m445.072-240.064a79.824 79.824 0 0 1 0 113.056 79.824 79.824 0 0 1-113.056 0c-31.296-31.28-31.296-82.192 0-113.056a79.824 79.824 0 0 1 113.056 0z m-736 0a79.824 79.824 0 0 1 0 113.056 79.824 79.824 0 0 1-113.056 0c-31.296-31.28-31.296-82.192 0-113.056a79.824 79.824 0 0 1 113.056 0z m658.928 32.064l-2.272 2.096c-12.288 12.112-12.288 32.448 0.224 44.96 12.544 12.544 32.64 12.544 45.184 0a31.824 31.824 0 0 0 0-45.184 31.808 31.808 0 0 0-43.136-1.872z m-736 0l-2.272 2.096c-12.288 12.112-12.288 32.448 0.224 44.96 12.544 12.544 32.64 12.544 45.184 0a31.824 31.824 0 0 0 0-45.184 31.808 31.808 0 0 0-43.136-1.872zM568.528 55.472a79.824 79.824 0 0 1 0 113.056 79.824 79.824 0 0 1-113.056 0c-31.296-31.28-31.296-82.192 0-113.056a79.824 79.824 0 0 1 113.056 0zM491.456 87.52l-2.272 2.096c-12.288 12.112-12.288 32.448 0.224 44.96 12.544 12.544 32.64 12.544 45.184 0a31.824 31.824 0 0 0 0-45.184 31.808 31.808 0 0 0-43.136-1.872z" fill="#1062FE" p-id="8156"></path></svg>