<?xml version="1.0" standalone="no"?><!DOCTYPE svg PUBLIC "-//W3C//DTD SVG 1.1//EN" "http://www.w3.org/Graphics/SVG/1.1/DTD/svg11.dtd"><svg t="1747216512714" class="icon" viewBox="0 0 1024 1024" version="1.1" xmlns="http://www.w3.org/2000/svg" p-id="9207" xmlns:xlink="http://www.w3.org/1999/xlink" width="200" height="200"><path d="M499.205038 1023.971186a37.587567 37.587567 0 0 1-27.213985-11.266936c-11.266936-11.266936-14.080337-28.160674-7.506846-43.174368 52.561259-116.37612 27.213985-256.219469-62.881506-346.328293-58.18806-58.18806-136.096592-91.04218-218.671903-91.04218a311.67413 311.67413 0 0 0-127.669723 27.227319c-15.013693 6.573491-31.907431 3.746756-43.174368-7.506846s-14.080337-28.160674-7.506846-43.174368c18.773783-42.241011 45.987768-80.708599 78.841888-114.509408 73.175086-73.215086 169.870734-113.562719 273.179875-113.562719h16.893738a549.46649 549.46649 0 0 1 272.17985-240.272421A554.106602 554.106602 0 0 1 852.160157 0c43.174367 0 86.348734 4.693446 127.643056 15.013693 14.080337 3.746756 25.33394 14.080337 28.160674 28.160674a548.013122 548.013122 0 0 1-146.483507 515.279005 540.51961 540.51961 0 0 1-120.13621 91.04218c4.693446 108.869274-35.667521 213.045101-112.629364 290.953634-32.85412 32.85412-71.335041 60.068105-114.509408 78.841888a23.640566 23.640566 0 0 1-15.013693 4.693446zM181.024086 455.197567c103.242472 0 200.858143 40.360966 273.12654 113.562719a389.729332 389.729332 0 0 1 107.935918 207.431633c7.506846 40.360966 7.506846 81.655289 1.880045 121.069566 3.746756-2.813401 6.573491-6.573491 10.320247-9.333557a310.874111 310.874111 0 0 0 89.162135-254.406091 37.200891 37.200891 0 0 1 21.587184-38.480922 457.904298 457.904298 0 0 0 122.949611-89.162135c110.749319-110.749319 158.670466-266.553049 130.456457-419.530046-28.160674-5.626801-57.254704-7.506846-86.348735-7.506846-125.763011 0-244.005843 48.801169-333.181311 137.963303-36.600876 36.600876-65.694906 77.895199-89.162135 122.949611a38.587591 38.587591 0 0 1-38.480922 20.653828c-11.266936-0.933356-23.467229-1.880045-34.667496-1.880045-82.588644 0-160.497176 31.907431-218.671903 91.04218a93.335568 93.335568 0 0 0-9.333557 10.320247c16.000383-3.746756 34.667497-4.693446 52.561259-4.693445z m-51.614569 513.345625a340.728159 340.728159 0 0 1-35.667521-1.880045 39.867621 39.867621 0 0 1-32.85412-32.85412c-0.933356-5.626801-19.707139-147.350195 76.961843-244.965866 45.987768-45.987768 84.468689-66.668263 122.949611-66.668263 45.987768 0 77.895199 31.907431 94.788936 48.801169s46.921124 46.921124 48.801169 91.04218c1.880045 39.414277-19.707139 79.775244-66.668263 127.643056-68.508307 68.508307-159.550487 78.841888-208.36499 78.841888z m131.403146-269.339783c-9.333557 0-30.027386 5.626801-68.508307 44.107723-29.09403 29.09403-46.921124 67.574951-53.494614 116.37612a210.178366 210.178366 0 0 0-2.813401 31.907431c37.547566-0.933356 101.33576-10.320247 148.296885-56.308015 39.414277-39.414277 45.054412-61.001461 44.107722-69.454997-0.933356-11.266936-11.266936-24.400584-26.280629-39.42761-19.707139-20.653828-30.974075-27.213985-41.334323-27.213985zM746.037615 380.115769a116.37612 116.37612 0 1 1 116.37612-116.336119 116.362786 116.362786 0 0 1-116.37612 116.37612z m0-154.857042a38.667593 38.667593 0 0 0-38.480921 38.520923c0 20.653828 17.827094 38.480921 38.480921 38.480921a38.667593 38.667593 0 0 0 38.480922-38.480921 38.067578 38.067578 0 0 0-38.480922-38.480922z" fill="" p-id="9208"></path></svg>